# xmcd
#
# Track frame offsets:
#	150
#	15085
#	29994
#	44349
#	65981
#	82090
#	93283
#	111868
#	127595
#	148052
#	163133
#	181296
#	200272
#	217803
#	238195
#	259110
#
# Disc length: 3653 seconds
#
# Revision: 1
# Processed by: cddbd v1.5.2PL0 Copyright (c) Steve Scherf et al.
# Submitted via: audiograbber 1.83.01
#
DISCID=e10e4310
DTITLE=ESP489 - ESP489-06
DYEAR=1900
DGENRE=
TTITLE0=Miranda Lambert - Crazy Ex-Girlfriend
TTITLE1=Susan Haynes - Drinkin' In My Sunday Dress
TTITLE2=Gretchen Wilson - Midnight Oil
TTITLE3=Sara Evans - You'll Always Be My Baby
TTITLE4=Faith Hill - Sunshine And Summertime
TTITLE5=Martina McBride - You Ain't Woman Enough
TTITLE6=LeAnn Rimes - Some People
TTITLE7=Megan Mullins - Ain't What It Used To Be
TTITLE8=Dixie Chicks - Everybody Knows
TTITLE9=Julie Roberts - Girl Next Door
TTITLE10=Carrie Underwood - Some Hearts
TTITLE11=Carolyn Dawn Johnson - Love and Negotiation
TTITLE12=Sarah Buxton - Innocence
TTITLE13=Faith Hill - Stealing Kisses
TTITLE14=Martina McBride - Anyway
TTITLE15=Little Big Town - Looking For A Reason
EXTD=
EXTT0=
EXTT1=
EXTT2=
EXTT3=
EXTT4=
EXTT5=
EXTT6=
EXTT7=
EXTT8=
EXTT9=
EXTT10=
EXTT11=
EXTT12=
EXTT13=
EXTT14=
EXTT15=
PLAYORDER=
